<?xml version="1.0" encoding="UTF-8" standalone="no"?>
<svg
   xmlns:dc="http://purl.org/dc/elements/1.1/"
   xmlns:cc="http://creativecommons.org/ns#"
   xmlns:rdf="http://www.w3.org/1999/02/22-rdf-syntax-ns#"
   xmlns:svg="http://www.w3.org/2000/svg"
   xmlns="http://www.w3.org/2000/svg"
   xmlns:sodipodi="http://sodipodi.sourceforge.net/DTD/sodipodi-0.dtd"
   xmlns:inkscape="http://www.inkscape.org/namespaces/inkscape"
   width="210mm"
   height="297mm"
   viewBox="0 0 210 297"
   version="1.1"
   id="svg9235"
   inkscape:version="1.0.1 (1.0.1+r74)"
   sodipodi:docname="drawing-1.svg">
  <defs
     id="defs9229">
    <clipPath
       id="clip59">
      <rect
         x="0"
         y="0"
         width="11"
         height="23"
         id="rect1371" />
    </clipPath>
    <clipPath
       id="clip60">
      <path
         d="M 0.46875 0.722656 L 10.871094 0.722656 L 10.871094 22.917969 L 0.46875 22.917969 Z M 0.46875 0.722656 "
         id="path1368" />
    </clipPath>
    <mask
       id="mask16">
      <g
         filter="url(#alpha)"
         id="g1365"
         transform="scale(0.26458333)">
        <rect
           x="0"
           y="0"
           width="1298.35"
           height="1472.98"
           style="fill:#000000;fill-opacity:0.75;stroke:none"
           id="rect1363" />
      </g>
    </mask>
    <filter
       id="alpha"
       filterUnits="objectBoundingBox"
       x="0%"
       y="0%"
       width="100%"
       height="100%">
      <feColorMatrix
         type="matrix"
         in="SourceGraphic"
         values="0 0 0 0 1 0 0 0 0 1 0 0 0 0 1 0 0 0 1 0"
         id="feColorMatrix445" />
    </filter>
    <clipPath
       id="clipPath9198">
      <rect
         x="0"
         y="0"
         width="11"
         height="23"
         id="rect9196" />
    </clipPath>
    <clipPath
       id="clipPath9202">
      <path
         d="M 0.46875 0.722656 L 10.871094 0.722656 L 10.871094 22.917969 L 0.46875 22.917969 Z M 0.46875 0.722656 "
         id="path9200" />
    </clipPath>
  </defs>
  <sodipodi:namedview
     id="base"
     pagecolor="#ffffff"
     bordercolor="#666666"
     borderopacity="1.0"
     inkscape:pageopacity="0.0"
     inkscape:pageshadow="2"
     inkscape:zoom="0.35"
     inkscape:cx="400"
     inkscape:cy="560"
     inkscape:document-units="mm"
     inkscape:current-layer="layer1"
     inkscape:document-rotation="0"
     showgrid="false"
     inkscape:window-width="1848"
     inkscape:window-height="1016"
     inkscape:window-x="72"
     inkscape:window-y="27"
     inkscape:window-maximized="1" />
  <metadata
     id="metadata9232">
    <rdf:RDF>
      <cc:Work
         rdf:about="">
        <dc:format>image/svg+xml</dc:format>
        <dc:type
           rdf:resource="http://purl.org/dc/dcmitype/StillImage" />
        <dc:title></dc:title>
      </cc:Work>
    </rdf:RDF>
  </metadata>
  <g
     inkscape:label="Layer 1"
     inkscape:groupmode="layer"
     id="layer1">
    <g
       id="use5155"
       clip-path="url(#clip59)"
       transform="matrix(19.117481,0,0,11.867454,-2.8066681,7.0369624)">
      <g
         clip-path="url(#clip60)"
         clip-rule="nonzero"
         id="g9274">
        <path
           style="fill:#999999;fill-opacity:1;fill-rule:nonzero;stroke:none"
           d="m 6.972656,0.722656 c 2.152344,0 3.902344,1.75 3.902344,3.902344 v 13.09375 c 0,2.867188 -2.332031,5.199219 -5.203125,5.199219 -2.867187,0 -5.199219,-2.332031 -5.199219,-5.199219 V 4.625 h 1.300782 v 13.09375 c 0,2.148438 1.75,3.898438 3.898437,3.898438 2.152344,0 3.902344,-1.75 3.902344,-3.898438 V 4.625 c 0,-1.433594 -1.167969,-2.601562 -2.601563,-2.601562 -1.433594,0 -2.601562,1.167968 -2.601562,2.601562 v 10.492188 c 0,0.714843 0.585937,1.296874 1.300781,1.296874 0.71875,0 1.300781,-0.582031 1.300781,-1.296874 V 4.625 h 1.300782 v 10.492188 c 0,1.433593 -1.164063,2.601562 -2.601563,2.601562 -1.433594,0 -2.597656,-1.167969 -2.597656,-2.601562 V 4.625 c 0,-2.152344 1.75,-3.902344 3.898437,-3.902344"
           id="path9272" />
      </g>
    </g>
  </g>
</svg>
