<?xml version="1.0" encoding="UTF-8" standalone="no"?>
<svg
   xmlns:dc="http://purl.org/dc/elements/1.1/"
   xmlns:cc="http://creativecommons.org/ns#"
   xmlns:rdf="http://www.w3.org/1999/02/22-rdf-syntax-ns#"
   xmlns:svg="http://www.w3.org/2000/svg"
   xmlns="http://www.w3.org/2000/svg"
   xmlns:sodipodi="http://sodipodi.sourceforge.net/DTD/sodipodi-0.dtd"
   xmlns:inkscape="http://www.inkscape.org/namespaces/inkscape"
   width="210mm"
   height="297mm"
   viewBox="0 0 210 297"
   version="1.1"
   id="svg9127"
   inkscape:version="1.0.1 (1.0.1+r74)"
   sodipodi:docname="drawing.svg">
  <defs
     id="defs9121" />
  <sodipodi:namedview
     id="base"
     pagecolor="#ffffff"
     bordercolor="#666666"
     borderopacity="1.0"
     inkscape:pageopacity="0.0"
     inkscape:pageshadow="2"
     inkscape:zoom="0.35"
     inkscape:cx="400"
     inkscape:cy="560"
     inkscape:document-units="mm"
     inkscape:current-layer="layer1"
     inkscape:document-rotation="0"
     showgrid="false"
     inkscape:window-width="1848"
     inkscape:window-height="1016"
     inkscape:window-x="72"
     inkscape:window-y="27"
     inkscape:window-maximized="1" />
  <metadata
     id="metadata9124">
    <rdf:RDF>
      <cc:Work
         rdf:about="">
        <dc:format>image/svg+xml</dc:format>
        <dc:type
           rdf:resource="http://purl.org/dc/dcmitype/StillImage" />
        <dc:title></dc:title>
      </cc:Work>
    </rdf:RDF>
  </metadata>
  <g
     inkscape:label="Layer 1"
     inkscape:groupmode="layer"
     id="layer1">
    <path
       style="fill:#ffffff;fill-opacity:1;fill-rule:nonzero;stroke:none;stroke-width:7.77268"
       d="M 123.92776,253.63998 93.813253,173.60241 185.38574,55.544266 Z M 23.181596,123.79369 176.88096,44.549393 85.281778,162.60666 Z M 206.13966,17.80079 c -1.68496,-2.205923 -4.25238,-2.860797 -6.47204,-1.723417 L 6.0385408,115.90045 c -2.2196496,1.13735 -3.6902855,3.86055 -3.7710751,6.92783 -0.1094584,3.06816 1.2303203,5.92893 3.3965682,7.27374 l 76.3286661,47.70505 37.04047,98.4103 c 0.99002,2.68785 3.10286,4.37765 5.40261,4.37765 0.0821,0 0.1574,0 0.23964,0 2.38055,-0.105 4.46669,-2.03408 5.37591,-4.86033 L 207.47612,26.17667 c 0.90924,-2.860797 0.3765,-6.169857 -1.33718,-8.37588"
       id="path5159" />
  </g>
</svg>
