<?xml version="1.0" encoding="UTF-8" standalone="no"?>
<svg
   xmlns:dc="http://purl.org/dc/elements/1.1/"
   xmlns:cc="http://creativecommons.org/ns#"
   xmlns:rdf="http://www.w3.org/1999/02/22-rdf-syntax-ns#"
   xmlns:svg="http://www.w3.org/2000/svg"
   xmlns="http://www.w3.org/2000/svg"
   xmlns:sodipodi="http://sodipodi.sourceforge.net/DTD/sodipodi-0.dtd"
   xmlns:inkscape="http://www.inkscape.org/namespaces/inkscape"
   width="210mm"
   height="297mm"
   viewBox="0 0 210 297"
   version="1.1"
   id="svg9328"
   inkscape:version="1.0.1 (1.0.1+r74)"
   sodipodi:docname="drawing-2.svg">
  <defs
     id="defs9322">
    <clipPath
       id="clip61">
      <rect
         x="0"
         y="0"
         width="23"
         height="22"
         id="rect1387" />
    </clipPath>
    <clipPath
       id="clip62">
      <path
         d="M 0.578125 0.308594 L 22.179688 0.308594 L 22.179688 21.910156 L 0.578125 21.910156 Z M 0.578125 0.308594 "
         id="path1384" />
    </clipPath>
    <mask
       id="mask17">
      <g
         filter="url(#alpha)"
         id="g1381"
         transform="scale(0.26458333)">
        <rect
           x="0"
           y="0"
           width="1298.35"
           height="1472.98"
           style="fill:#000000;fill-opacity:0.75;stroke:none"
           id="rect1379" />
      </g>
    </mask>
    <filter
       id="alpha"
       filterUnits="objectBoundingBox"
       x="0%"
       y="0%"
       width="100%"
       height="100%">
      <feColorMatrix
         type="matrix"
         in="SourceGraphic"
         values="0 0 0 0 1 0 0 0 0 1 0 0 0 0 1 0 0 0 1 0"
         id="feColorMatrix445" />
    </filter>
    <clipPath
       id="clipPath9315">
      <rect
         x="0"
         y="0"
         width="23"
         height="22"
         id="rect9313" />
    </clipPath>
    <clipPath
       id="clipPath9319">
      <path
         d="M 0.578125 0.308594 L 22.179688 0.308594 L 22.179688 21.910156 L 0.578125 21.910156 Z M 0.578125 0.308594 "
         id="path9317" />
    </clipPath>
  </defs>
  <sodipodi:namedview
     id="base"
     pagecolor="#ffffff"
     bordercolor="#666666"
     borderopacity="1.0"
     inkscape:pageopacity="0.0"
     inkscape:pageshadow="2"
     inkscape:zoom="0.35"
     inkscape:cx="400"
     inkscape:cy="560"
     inkscape:document-units="mm"
     inkscape:current-layer="layer1"
     inkscape:document-rotation="0"
     showgrid="false"
     inkscape:window-width="1848"
     inkscape:window-height="1016"
     inkscape:window-x="72"
     inkscape:window-y="27"
     inkscape:window-maximized="1" />
  <metadata
     id="metadata9325">
    <rdf:RDF>
      <cc:Work
         rdf:about="">
        <dc:format>image/svg+xml</dc:format>
        <dc:type
           rdf:resource="http://purl.org/dc/dcmitype/StillImage" />
        <dc:title></dc:title>
      </cc:Work>
    </rdf:RDF>
  </metadata>
  <g
     inkscape:label="Layer 1"
     inkscape:groupmode="layer"
     id="layer1">
    <g
       id="use5157"
       clip-path="url(#clip61)"
       transform="matrix(9.4232314,0,0,9.8671349,0.96419453,36.056811)">
      <g
         clip-path="url(#clip62)"
         clip-rule="nonzero"
         id="g9370">
        <path
           style="fill:#999999;fill-opacity:1;fill-rule:nonzero;stroke:none"
           d="m 11.382812,20.5625 c -5.222656,0 -9.453124,-4.234375 -9.453124,-9.453125 0,-5.21875 4.230468,-9.449219 9.453124,-9.449219 5.21875,0 9.449219,4.230469 9.449219,9.449219 0,5.21875 -4.230469,9.453125 -9.449219,9.453125 m 0,-20.253906 c -5.96875,0 -10.804687,4.835937 -10.804687,10.800781 0,5.964844 4.835937,10.800781 10.804687,10.800781 5.964844,0 10.800782,-4.835937 10.800782,-10.800781 0,-5.964844 -4.835938,-10.800781 -10.800782,-10.800781"
           id="path9368" />
      </g>
      <path
         style="fill:#999999;fill-opacity:1;fill-rule:nonzero;stroke:none"
         d="m 8.007812,6.382812 c 0.746094,0 1.347657,0.605469 1.347657,1.351563 0,0.746094 -0.601563,1.351563 -1.347657,1.351563 -0.746093,0 -1.351562,-0.605469 -1.351562,-1.351563 0,-0.746094 0.605469,-1.351563 1.351562,-1.351563"
         id="path9372" />
      <path
         style="fill:#999999;fill-opacity:1;fill-rule:nonzero;stroke:none"
         d="m 14.757812,6.382812 c 0.746094,0 1.347657,0.605469 1.347657,1.351563 0,0.746094 -0.601563,1.351563 -1.347657,1.351563 -0.746093,0 -1.351562,-0.605469 -1.351562,-1.351563 0,-0.746094 0.605469,-1.351563 1.351562,-1.351563"
         id="path9374" />
      <path
         style="fill:#999999;fill-opacity:1;fill-rule:nonzero;stroke:none"
         d="m 16.109375,11.109375 c 0,2.609375 -2.117187,4.726563 -4.726563,4.726563 -2.609374,0 -4.726562,-2.117188 -4.726562,-4.726563 H 5.304688 c 0,3.355469 2.722656,6.078125 6.078124,6.078125 3.355469,0 6.074219,-2.722656 6.074219,-6.078125 z m 0,0"
         id="path9376" />
    </g>
  </g>
</svg>
