<?xml version="1.0" encoding="utf-8"?>
<!-- Generator: Adobe Illustrator 25.0.1, SVG Export Plug-In . SVG Version: 6.00 Build 0)  -->
<svg version="1.1" id="Layer_1" xmlns="http://www.w3.org/2000/svg" xmlns:xlink="http://www.w3.org/1999/xlink" x="0px" y="0px"
	 viewBox="0 0 17.35 17.35" style="enable-background:new 0 0 17.35 17.35;" xml:space="preserve">
<style type="text/css">
	.st0{fill:currentColor;}
</style>
<g id="surface1_1_">
	<path id="XMLID_190_" class="st0" d="M16.84,1.25h-2.23c0.01-0.25,0.01-0.49,0.01-0.74C14.62,0.23,14.4,0,14.12,0H3.23
		C2.95,0,2.72,0.23,2.72,0.51c0,0.25,0,0.5,0.01,0.74H0.51C0.23,1.25,0,1.48,0,1.76c0,2.28,0.6,4.43,1.68,6.05
		c1.07,1.61,2.49,2.53,4.03,2.62c0.35,0.38,0.72,0.69,1.1,0.92v2.26H5.95c-1.03,0-1.87,0.84-1.87,1.87v0.85H4.05
		c-0.28,0-0.51,0.23-0.51,0.51c0,0.28,0.23,0.51,0.51,0.51h9.25c0.28,0,0.51-0.23,0.51-0.51c0-0.28-0.23-0.51-0.51-0.51h-0.04v-0.85
		c0-1.03-0.84-1.87-1.87-1.87h-0.85v-2.26c0.38-0.24,0.75-0.54,1.1-0.92c1.54-0.09,2.96-1.01,4.03-2.62
		c1.08-1.62,1.68-3.77,1.68-6.05C17.35,1.48,17.12,1.25,16.84,1.25z M2.52,7.25C1.63,5.91,1.11,4.16,1.03,2.27h1.76
		c0.18,2.32,0.73,4.46,1.58,6.17C4.51,8.7,4.65,8.96,4.79,9.2C3.95,8.88,3.17,8.22,2.52,7.25z M12.25,15.48v0.85H5.1v-0.85
		c0-0.47,0.38-0.85,0.85-0.85h5.44C11.86,14.62,12.25,15.01,12.25,15.48z M9.53,13.61H7.82v-1.82c0.28,0.07,0.56,0.11,0.85,0.11
		s0.57-0.04,0.85-0.11V13.61z M9.84,10.58c-0.02,0.01-0.04,0.02-0.07,0.03c-0.36,0.18-0.73,0.27-1.1,0.27
		c-0.37,0-0.74-0.09-1.1-0.27c-0.02-0.01-0.04-0.02-0.07-0.03c-0.4-0.21-0.78-0.53-1.15-0.95C6.34,9.61,6.32,9.58,6.29,9.56
		C5.93,9.13,5.59,8.6,5.28,7.98C4.34,6.11,3.81,3.66,3.74,1.02h9.86c-0.06,2.64-0.6,5.09-1.53,6.96c-0.31,0.62-0.65,1.15-1.01,1.58
		c-0.02,0.02-0.05,0.05-0.06,0.08C10.62,10.05,10.24,10.37,9.84,10.58z M14.82,7.25c-0.64,0.97-1.43,1.64-2.27,1.96
		c0.15-0.24,0.29-0.5,0.42-0.77c0.85-1.7,1.4-3.85,1.58-6.17h1.76C16.24,4.16,15.72,5.91,14.82,7.25z"/>
</g>
</svg>
