<svg xmlns="http://www.w3.org/2000/svg" width="24" height="24" viewBox="0 0 24 24">
  <g id="Group_10690" data-name="Group 10690" transform="translate(9573 17249)">
    <path id="local_library_FILL0_wght300_GRAD0_opsz48" d="M14.129,21.476A14.018,14.018,0,0,0,11.235,19.9a12.976,12.976,0,0,0-3.153-.824,1.161,1.161,0,0,1-.776-.388A1.117,1.117,0,0,1,7,17.924V10.653a.931.931,0,0,1,.318-.729.884.884,0,0,1,.718-.235,11.223,11.223,0,0,1,3.659,1.235A16.044,16.044,0,0,1,15,13.288a16.044,16.044,0,0,1,3.306-2.365,11.223,11.223,0,0,1,3.659-1.235.884.884,0,0,1,.718.235.931.931,0,0,1,.318.729v7.271a1.117,1.117,0,0,1-.306.765,1.161,1.161,0,0,1-.776.388,12.976,12.976,0,0,0-3.153.824,14.018,14.018,0,0,0-2.894,1.576,1.594,1.594,0,0,1-1.741,0ZM15,20.818a15.534,15.534,0,0,1,3.365-1.871,13.931,13.931,0,0,1,3.576-.906V10.771a10.719,10.719,0,0,0-3.447,1.259A17.178,17.178,0,0,0,15,14.676a18.787,18.787,0,0,0-3.553-2.694,9.977,9.977,0,0,0-3.388-1.212v7.271a13.931,13.931,0,0,1,3.576.906A15.534,15.534,0,0,1,15,20.818Zm.047-11.106a3.274,3.274,0,0,1-3.294-3.294,3.2,3.2,0,0,1,.965-2.353,3.309,3.309,0,0,1,4.671,0,3.222,3.222,0,0,1,.953,2.353,3.254,3.254,0,0,1-3.294,3.294Zm0-1.082a2.14,2.14,0,0,0,1.588-.659,2.171,2.171,0,0,0,.647-1.576,2.113,2.113,0,0,0-.659-1.565,2.244,2.244,0,0,0-3.153,0,2.14,2.14,0,0,0-.659,1.588,2.113,2.113,0,0,0,.659,1.565A2.171,2.171,0,0,0,15.047,8.629ZM15.047,6.371ZM15,15.806Z" transform="translate(-9576 -17250.1)" fill="#fff"/>
     <rect id="Rectangle_1017" data-name="Rectangle 1017" width="24" height="24" transform="translate(-9573 -17249)" fill="none" opacity="0.20"/> -->
  </g>
</svg>
