<svg xmlns="http://www.w3.org/2000/svg" xmlns:xlink="http://www.w3.org/1999/xlink" width="1173.894" height="862.753" viewBox="0 0 1173.894 262.753">
  <defs>
    <clipPath id="clip-path">
      <rect id="Rectangle_1716" data-name="Rectangle 1716" width="1173.894" height="862.753" rx="23.656" transform="translate(257.922 150.941)" fill="#fff"/>
    </clipPath>
  </defs>
  <g id="Group_9" data-name="Group 9" transform="translate(-257.922 -750.941)" clip-path="url(#clip-path)">
    <g id="Group_6373" data-name="Group 6373" transform="translate(610.763 778.256)" opacity="0.47">
      <g id="Path_9797" data-name="Path 9797" transform="translate(-454.911 -529.896)" fill="none" stroke-miterlimit="10">
        <path d="M844.351,829.677l64.342-64.342-64.342-64.342V610H753.358l-64.342-64.342L624.674,610H533.681v90.993L469.34,765.336l64.342,64.342V920.67h90.993l64.342,64.342,64.342-64.342h90.993Z" stroke="none"/>
        <path d="M 689.0159912109375 934.0999755859375 L 738.4461059570312 884.6698608398438 L 808.3505859375 884.6698608398438 L 808.3505859375 814.7655639648438 L 857.7805786132812 765.3355712890625 L 808.3505859375 715.9055786132812 L 808.3505859375 646.000732421875 L 738.4459838867188 646.000732421875 L 689.0159912109375 596.5707397460938 L 639.5861206054688 646.000732421875 L 569.681396484375 646.000732421875 L 569.681396484375 715.9055786132812 L 520.2515258789062 765.3355712890625 L 569.681396484375 814.7655639648438 L 569.681396484375 884.6698608398438 L 639.5859985351562 884.6698608398438 L 689.0159912109375 934.0999755859375 M 689.0159912109375 985.01171875 L 624.6742553710938 920.6698608398438 L 533.681396484375 920.6698608398438 L 533.681396484375 829.6773071289062 L 469.33984375 765.3355712890625 L 533.681396484375 700.993896484375 L 533.681396484375 610.000732421875 L 624.6744384765625 610.000732421875 L 689.0159912109375 545.6589965820312 L 753.3577270507812 610.000732421875 L 844.3505859375 610.000732421875 L 844.3505859375 700.993896484375 L 908.6922607421875 765.3355712890625 L 844.3505859375 829.6773071289062 L 844.3505859375 920.6698608398438 L 753.3578491210938 920.6698608398438 L 689.0159912109375 985.01171875 Z" stroke="none" fill="#bac6d8"/>
      </g>
      <g id="Path_9798" data-name="Path 9798" transform="translate(-457.766 -533.015)" fill="none" stroke-miterlimit="10">
        <path d="M857.409,837.413l68.568-68.959L857.409,699.5V601.974h-96.97l-68.568-68.959L623.3,601.974h-96.97V699.5l-68.568,68.959,68.568,68.959v97.522H623.3l68.568,68.959,68.568-68.959h96.97Z" stroke="none"/>
        <path d="M 691.8710327148438 1001.057373046875 L 759.6072387695312 932.9349975585938 L 855.4085083007812 932.9349975585938 L 855.4085083007812 836.5880126953125 L 855.9902954101562 836.0029907226562 L 923.1559448242188 768.45458984375 L 855.4085083007812 700.3211669921875 L 855.4085083007812 603.9735107421875 L 759.607177734375 603.9735107421875 L 759.0206298828125 603.3837280273438 L 691.8710327148438 535.8515014648438 L 624.1349487304688 603.9735107421875 L 528.33349609375 603.9735107421875 L 528.33349609375 700.3211669921875 L 527.751708984375 700.9061889648438 L 460.5861206054688 768.45458984375 L 528.33349609375 836.5880126953125 L 528.33349609375 932.9349975585938 L 624.1348876953125 932.9349975585938 L 624.721435546875 933.5247802734375 L 691.8710327148438 1001.057373046875 M 691.8710327148438 1003.893920898438 L 623.3031616210938 934.9349975585938 L 526.33349609375 934.9349975585938 L 526.33349609375 837.4131469726562 L 457.7656555175781 768.45458984375 L 526.33349609375 699.4960327148438 L 526.33349609375 601.9735107421875 L 623.30322265625 601.9735107421875 L 691.8710327148438 533.0149536132812 L 760.4389038085938 601.9735107421875 L 857.4085083007812 601.9735107421875 L 857.4085083007812 699.4960327148438 L 925.9763793945312 768.45458984375 L 857.4085083007812 837.4131469726562 L 857.4085083007812 934.9349975585938 L 760.43896484375 934.9349975585938 L 691.8710327148438 1003.893920898438 Z" stroke="none" fill="#bac6d8"/>
      </g>
    </g>
  </g>
</svg>
