<svg viewBox="0 0 792 463" fill="none" xmlns="http://www.w3.org/2000/svg">
<path d="M759.495 0H32.5049C14.8318 0 0.504883 14.3269 0.504883 32V430.247C0.504883 447.92 14.8318 462.247 32.5049 462.247H759.495C777.168 462.247 791.495 447.92 791.495 430.247V32C791.495 14.3269 777.168 0 759.495 0Z" fill="#0D2661"/>
<mask id="mask0_266_46665" style="mask-type:luminance" maskUnits="userSpaceOnUse" x="0" y="0" width="792" height="463">
<path d="M759.495 0H32.5049C14.8318 0 0.504883 14.3269 0.504883 32V430.247C0.504883 447.92 14.8318 462.247 32.5049 462.247H759.495C777.168 462.247 791.495 447.92 791.495 430.247V32C791.495 14.3269 777.168 0 759.495 0Z" fill="white"/>
</mask>
<g mask="url(#mask0_266_46665)">
<path d="M396 462.248L687.314 -1.90625H880.933L865.847 462.248H396Z" fill="#213A73"/>
</g>
</svg>
