<svg xmlns="http://www.w3.org/2000/svg" viewBox="0 0 17.545 17.081">
  <g id="Group_9014" data-name="Group 9014" transform="translate(0 0)">
    <g id="Group_7324" data-name="Group 7324">
      <g id="Group_7323" data-name="Group 7323">
        <g id="Group_7322" data-name="Group 7322">
          <g id="Group_7319" data-name="Group 7319" transform="translate(3.719 13.246)">
            <path id="Path_12314" data-name="Path 12314" d="M138.139,700.038a1.809,1.809,0,1,0,1.808,1.808A1.808,1.808,0,0,0,138.139,700.038Zm0,2.813a1,1,0,1,1,1-1A1,1,0,0,1,138.139,702.851Z" transform="translate(-136.221 -699.929)" fill="#edeff4"/>
            <path id="Path_12315" data-name="Path 12315" d="M138.138,703.763a1.917,1.917,0,1,1,1.917-1.917A1.919,1.919,0,0,1,138.138,703.763Zm0-3.618a1.7,1.7,0,1,0,1.7,1.7A1.7,1.7,0,0,0,138.138,700.144Zm0,2.813a1.113,1.113,0,1,1,1.113-1.112A1.114,1.114,0,0,1,138.138,702.958Zm0-2.01a.9.9,0,1,0,.9.9A.9.9,0,0,0,138.138,700.948Z" transform="translate(-136.22 -699.928)" fill="#edeff4"/>
          </g>
          <g id="Group_7320" data-name="Group 7320" transform="translate(11.357 13.246)">
            <path id="Path_12316" data-name="Path 12316" d="M145.865,700.038a1.809,1.809,0,1,0,1.809,1.808A1.808,1.808,0,0,0,145.865,700.038Zm0,2.813a1,1,0,1,1,1-1A1,1,0,0,1,145.865,702.851Z" transform="translate(-143.947 -699.929)" fill="#edeff4"/>
            <path id="Path_12317" data-name="Path 12317" d="M145.864,703.763a1.917,1.917,0,1,1,1.917-1.917A1.919,1.919,0,0,1,145.864,703.763Zm0-3.618a1.7,1.7,0,1,0,1.7,1.7A1.7,1.7,0,0,0,145.864,700.144Zm0,2.813a1.113,1.113,0,1,1,1.113-1.112A1.113,1.113,0,0,1,145.864,702.958Zm0-2.01a.9.9,0,1,0,.9.9A.9.9,0,0,0,145.864,700.948Z" transform="translate(-143.946 -699.928)" fill="#edeff4"/>
          </g>
          <g id="Group_7321" data-name="Group 7321">
            <path id="Path_12319" data-name="Path 12319" d="M147.14,699.007h-7.819a1.98,1.98,0,0,1-1.6-.894,2.042,2.042,0,0,1-.191-1.847l.186-.428-2.54-7.66a.942.942,0,0,0-.865-.63h-1.344a.51.51,0,1,1,0-1.02h1.346a1.961,1.961,0,0,1,1.831,1.319l.338,1.034,13.009.18a.611.611,0,0,1,.4.2l0,0a.451.451,0,0,1,.079.45l-.961,4.027a2.323,2.323,0,0,1-2,1.771l-8.4.879-.135.3a.985.985,0,0,0,.094.863.913.913,0,0,0,.754.431h7.817a.511.511,0,0,1,0,1.021Zm-12.825-12.262h-1.345a.294.294,0,1,0,0,.587h1.346a1.159,1.159,0,0,1,1.067.777l2.567,7.739-.218.5A1.827,1.827,0,0,0,137.9,698a1.765,1.765,0,0,0,1.42.795h7.816a.294.294,0,1,0,0-.588h-7.819a1.13,1.13,0,0,1-.936-.533,1.207,1.207,0,0,1-.111-1.059l.19-.426.061-.006,8.462-.885a2.107,2.107,0,0,0,1.816-1.606l.965-4.04a.24.24,0,0,0-.037-.244.392.392,0,0,0-.25-.125l-13.154-.181-.386-1.179A1.743,1.743,0,0,0,134.315,686.745Zm4.146,8.832-.027-.082-1.917-5.813.152,0,12.456.183-.9,3.689a1.468,1.468,0,0,1-1.323,1.149Zm-1.643-5.674,1.794,5.44,8.276-.854a1.253,1.253,0,0,0,1.131-.982v0l.832-3.425Z" transform="translate(-132.458 -686.529)" fill="#edeff4"/>
          </g>
        </g>
      </g>
    </g>
    <path id="Path_12318" data-name="Path 12318" d="M149.814,689.332a.506.506,0,0,0-.321-.161l-13.085-.181-.362-1.105a1.852,1.852,0,0,0-1.729-1.247H132.97a.4.4,0,1,0,0,.8h1.346a1.045,1.045,0,0,1,.965.7l2.553,7.7-.2.462a1.928,1.928,0,0,0,.181,1.749,1.867,1.867,0,0,0,1.508.844h7.819a.4.4,0,1,0,0-.8h-7.819a1.024,1.024,0,0,1-.844-.482,1.1,1.1,0,0,1-.1-.965l.161-.362L147,695.4a2.208,2.208,0,0,0,1.909-1.689l.965-4.039A.342.342,0,0,0,149.814,689.332Zm-1.689,4.2A1.367,1.367,0,0,1,146.9,694.6l-8.362.864-1.869-5.668,12.322.181Z" transform="translate(-132.459 -686.53)" fill="#edeff4"/>
  </g>
</svg>
