<svg id="Group_7447" data-name="Group 7447" xmlns="http://www.w3.org/2000/svg" viewBox="0 0 35.677 34.732">
  <g id="Group_7446" data-name="Group 7446">
    <g id="Group_7445" data-name="Group 7445">
      <g id="Group_7444" data-name="Group 7444">
        <g id="Group_7441" data-name="Group 7441" transform="translate(7.563 26.935)">
          <path id="Path_12629" data-name="Path 12629" d="M998.216,229.289a3.679,3.679,0,1,0,3.679,3.679A3.678,3.678,0,0,0,998.216,229.289Zm0,5.721a2.044,2.044,0,1,1,2.044-2.043A2.043,2.043,0,0,1,998.216,235.01Z" transform="translate(-994.318 -229.068)" fill="#1982ef"/>
          <path id="Path_12630" data-name="Path 12630" d="M998.289,236.939a3.9,3.9,0,1,1,3.9-3.9A3.9,3.9,0,0,1,998.289,236.939Zm0-7.357a3.458,3.458,0,1,0,3.459,3.459A3.463,3.463,0,0,0,998.289,229.582Zm0,5.723a2.264,2.264,0,1,1,2.264-2.264A2.266,2.266,0,0,1,998.289,235.3Zm0-4.087a1.823,1.823,0,1,0,1.823,1.823A1.826,1.826,0,0,0,998.289,231.218Z" transform="translate(-994.391 -229.142)" fill="#1982ef"/>
        </g>
        <g id="Group_7442" data-name="Group 7442" transform="translate(23.094 26.935)">
          <path id="Path_12631" data-name="Path 12631" d="M1008.557,229.289a3.679,3.679,0,1,0,3.678,3.679A3.678,3.678,0,0,0,1008.557,229.289Zm0,5.721a2.044,2.044,0,1,1,2.043-2.043A2.043,2.043,0,0,1,1008.557,235.01Z" transform="translate(-1004.657 -229.068)" fill="#1982ef"/>
          <path id="Path_12632" data-name="Path 12632" d="M1008.629,236.939a3.9,3.9,0,1,1,3.9-3.9A3.9,3.9,0,0,1,1008.629,236.939Zm0-7.357a3.458,3.458,0,1,0,3.461,3.459A3.464,3.464,0,0,0,1008.629,229.582Zm0,5.723a2.264,2.264,0,1,1,2.265-2.264A2.265,2.265,0,0,1,1008.629,235.3Zm0-4.087a1.823,1.823,0,1,0,1.825,1.823A1.825,1.825,0,0,0,1008.629,231.218Z" transform="translate(-1004.731 -229.142)" fill="#1982ef"/>
        </g>
        <g id="Group_7443" data-name="Group 7443">
          <path id="Path_12633" data-name="Path 12633" d="M1024.573,216.833a1.028,1.028,0,0,0-.655-.326l-26.609-.368-.734-2.249a3.763,3.763,0,0,0-3.516-2.534H990.32a.817.817,0,1,0,0,1.634h2.738a2.126,2.126,0,0,1,1.962,1.431l5.191,15.654-.409.94a3.926,3.926,0,0,0,.368,3.555,3.8,3.8,0,0,0,3.066,1.717h15.9a.817.817,0,1,0,0-1.634h-15.9a2.087,2.087,0,0,1-1.717-.981,2.249,2.249,0,0,1-.2-1.962l.327-.736,17.208-1.8a4.493,4.493,0,0,0,3.883-3.432l1.962-8.216A.7.7,0,0,0,1024.573,216.833Zm-3.434,8.544a2.779,2.779,0,0,1-2.493,2.166l-17,1.757-3.8-11.527,25.056.368Z" transform="translate(-989.282 -211.137)" fill="#1982ef"/>
          <path id="Path_12634" data-name="Path 12634" d="M1019.211,236.583h-15.9a4.027,4.027,0,0,1-3.249-1.816,4.158,4.158,0,0,1-.391-3.757l.38-.87-5.166-15.576a1.915,1.915,0,0,0-1.758-1.281h-2.734a1.036,1.036,0,1,1,0-2.073h2.738a3.987,3.987,0,0,1,3.724,2.68l.688,2.1,26.453.367a1.257,1.257,0,0,1,.813.4l0,0a.918.918,0,0,1,.162.915l-1.954,8.191a4.724,4.724,0,0,1-4.073,3.6l-17.082,1.786-.276.62a2.011,2.011,0,0,0,.189,1.754,1.86,1.86,0,0,0,1.535.877h15.9a1.038,1.038,0,1,1,0,2.076Zm-26.08-24.933h-2.737a.6.6,0,1,0,0,1.193h2.738a2.363,2.363,0,0,1,2.17,1.58l5.218,15.737-.442,1.017a3.711,3.711,0,0,0,.35,3.35,3.583,3.583,0,0,0,2.888,1.616h15.893a.6.6,0,1,0,0-1.2h-15.9a2.3,2.3,0,0,1-1.9-1.083,2.449,2.449,0,0,1-.224-2.154l.383-.867.126-.012,17.209-1.8a4.286,4.286,0,0,0,3.692-3.265l1.962-8.218a.49.49,0,0,0-.074-.5.8.8,0,0,0-.511-.255l-26.747-.368-.786-2.4A3.541,3.541,0,0,0,993.131,211.65Zm8.431,17.96-.054-.168-3.9-11.821.31.006,25.332.371-1.824,7.5a2.983,2.983,0,0,1-2.69,2.337Zm-3.341-11.539,3.649,11.064L1018.7,227.4a2.551,2.551,0,0,0,2.3-2v0l1.694-6.967Z" transform="translate(-989.356 -211.21)" fill="#1982ef"/>
        </g>
      </g>
    </g>
  </g>
</svg>
