<svg xmlns="http://www.w3.org/2000/svg" viewBox="0 0 56.21 56.245">
  <g id="Group_8157" data-name="Group 8157" transform="translate(0 0)">
    <path id="Path_14533" data-name="Path 14533" d="M824.715,557.959a2.1,2.1,0,0,1,1.478-1.2c.634-.172,1.253-.4,1.879-.6a1.5,1.5,0,0,1,2.069.872A1.515,1.515,0,0,1,829.031,559c-.658.228-1.319.438-1.978.655-1.229.4-1.713.211-2.338-.913Z" transform="translate(-824.715 -523.248)" fill="#fff"/>
    <path id="Path_14534" data-name="Path 14534" d="M851.328,538.517a3.7,3.7,0,0,1,3.4,2.238c1.756,3.612,3.517,7.218,5.255,10.837a1.3,1.3,0,0,0,1.115.821c3.926.56,7.847,1.156,11.771,1.735a3.592,3.592,0,0,1,3.113,2.537,3.66,3.66,0,0,1-.984,3.978q-4.277,4.247-8.568,8.479a1.246,1.246,0,0,0-.427,1.226q1.055,6.085,2.052,12.184a3.566,3.566,0,0,1-1.407,3.585,3.4,3.4,0,0,1-3.821.4c-1.767-.889-3.5-1.849-5.248-2.779-1.859-.992-3.725-1.976-5.574-2.987a1.249,1.249,0,0,0-1.332,0q-5.3,2.86-10.622,5.676A3.662,3.662,0,0,1,834.6,583.5a11.637,11.637,0,0,1,.317-2.751q.873-5.271,1.787-10.536a1.134,1.134,0,0,0-.451-1.063c-2.818-2.786-5.624-5.586-8.455-8.359a3.75,3.75,0,0,1-1.12-4.044,3.669,3.669,0,0,1,3.288-2.618c3.909-.55,7.811-1.16,11.718-1.725a1.192,1.192,0,0,0,.986-.754q2.628-5.448,5.278-10.886A3.7,3.7,0,0,1,851.328,538.517Zm21.9,19.522c-.048-.644-.341-.842-.8-.909-3.905-.574-7.809-1.181-11.72-1.725a4.067,4.067,0,0,1-3.356-2.423c-1.693-3.537-3.423-7.059-5.136-10.586a4.131,4.131,0,0,0-.254-.492.717.717,0,0,0-1.267.023,4.18,4.18,0,0,0-.225.445q-2.595,5.342-5.186,10.685a3.837,3.837,0,0,1-3.021,2.3c-2.351.354-4.7.688-7.055,1.037-1.682.247-3.365.486-5.042.771a.906.906,0,0,0-.636.487c-.066.245.113.567.214.846.033.1.149.159.228.236q4.206,4.166,8.413,8.326a3.944,3.944,0,0,1,1.221,3.681c-.682,3.986-1.339,7.978-2.017,11.965-.068.406-.125.779.25,1.057s.724.084,1.07-.1c3.443-1.841,6.9-3.659,10.329-5.526a4.054,4.054,0,0,1,4.169-.015c3.447,1.875,6.917,3.7,10.377,5.556.35.187.694.365,1.066.069.343-.271.3-.623.236-1.012-.667-3.894-1.3-7.8-1.99-11.688a4.294,4.294,0,0,1,1.323-4.124c2.815-2.738,5.589-5.517,8.372-8.286A4.037,4.037,0,0,0,873.231,558.039Z" transform="translate(-823.232 -538.517)" fill="#fff"/>
    <path id="Path_14535" data-name="Path 14535" d="M839.187,568.359c0-.5-.035-1,.009-1.5a1.426,1.426,0,0,1,1.426-1.334,1.4,1.4,0,0,1,1.472,1.34,29.758,29.758,0,0,1-.006,3.058,1.4,1.4,0,0,1-1.444,1.308,1.421,1.421,0,0,1-1.444-1.314c-.046-.515-.009-1.039-.009-1.557Z" transform="translate(-812.539 -514.985)" fill="#fff"/>
    <path id="Path_14536" data-name="Path 14536" d="M853.823,556.033a4.073,4.073,0,0,1,.483.1c.835.271,1.676.524,2.5.838a1.456,1.456,0,0,1,.859,1.866,1.441,1.441,0,0,1-1.8.96c-.891-.266-1.779-.554-2.654-.878a1.472,1.472,0,0,1-.942-1.692A1.506,1.506,0,0,1,853.823,556.033Z" transform="translate(-801.534 -523.255)" fill="#fff"/>
    <path id="Path_14537" data-name="Path 14537" d="M831.961,539.474a3.919,3.919,0,0,1,.956.674,24.588,24.588,0,0,1,1.557,2.154,1.5,1.5,0,0,1-.33,2.118,1.434,1.434,0,0,1-2.045-.342c-.554-.736-1.089-1.491-1.6-2.255a1.434,1.434,0,0,1-.048-1.581A1.615,1.615,0,0,1,831.961,539.474Z" transform="translate(-820.068 -537.683)" fill="#fff"/>
    <path id="Path_14538" data-name="Path 14538" d="M851.831,541.026a4.937,4.937,0,0,1-.378.9c-.47.709-.969,1.4-1.477,2.077a1.451,1.451,0,0,1-2.115.4,1.5,1.5,0,0,1-.28-2.169c.516-.743,1.037-1.486,1.592-2.2a1.371,1.371,0,0,1,1.629-.453A1.626,1.626,0,0,1,851.831,541.026Z" transform="translate(-805.741 -537.673)" fill="#fff"/>
  </g>
</svg>
