<svg xmlns="http://www.w3.org/2000/svg" viewBox="0 0 53.602 54.54">
  <g id="Group_8156" data-name="Group 8156" transform="translate(0 0)">
    <path id="Path_14530" data-name="Path 14530" d="M531.756,538.517c1.833,1.231,3.662,2.468,5.506,3.685a1.292,1.292,0,0,0,.726.187c2.026-.093,4.051-.211,6.075-.325a1.3,1.3,0,0,1,1.337.821c.864,1.763,1.754,3.513,2.614,5.277a1.628,1.628,0,0,0,.779.8c1.737.872,3.456,1.783,5.195,2.656a1.394,1.394,0,0,1,.818,1.5q-.2,3.057-.343,6.117a1.266,1.266,0,0,0,.219.677q1.594,2.5,3.22,4.987a1.5,1.5,0,0,1,0,1.819q-1.622,2.453-3.2,4.938a1.707,1.707,0,0,0-.247.928q.119,2.956.317,5.906a1.45,1.45,0,0,1-.9,1.563q-2.608,1.3-5.185,2.672a1.617,1.617,0,0,0-.635.644c-.9,1.746-1.759,3.509-2.636,5.266a1.31,1.31,0,0,1-1.583.909c-1.989-.123-3.979-.243-5.97-.341a1.222,1.222,0,0,0-.663.232c-1.639,1.085-3.279,2.171-4.9,3.29a1.388,1.388,0,0,1-1.778.008c-1.632-1.128-3.284-2.229-4.942-3.316a1.371,1.371,0,0,0-.774-.2c-2.008.1-4.016.221-6.022.339a1.3,1.3,0,0,1-1.339-.818c-.857-1.746-1.743-3.477-2.59-5.229a1.843,1.843,0,0,0-.9-.9c-1.66-.831-3.3-1.714-4.963-2.53a1.546,1.546,0,0,1-.962-1.688c.138-1.948.236-3.9.315-5.852a1.709,1.709,0,0,0-.258-.928q-1.55-2.47-3.163-4.9a1.481,1.481,0,0,1,.006-1.854c1.094-1.626,2.155-3.277,3.207-4.933a1.53,1.53,0,0,0,.225-.829c-.085-1.952-.181-3.9-.321-5.852a1.579,1.579,0,0,1,.973-1.739c1.745-.855,3.469-1.757,5.189-2.663a1.309,1.309,0,0,0,.531-.537c.906-1.78,1.8-3.567,2.671-5.367a1.432,1.432,0,0,1,1.551-.9c1.989.138,3.979.245,5.97.342a1.2,1.2,0,0,0,.669-.208c1.38-.906,2.745-1.832,4.117-2.749.466-.313.938-.614,1.407-.921Zm8.526,48.544v0c.96.056,1.919.1,2.879.174a.6.6,0,0,0,.683-.4c.792-1.641,1.623-3.262,2.417-4.9a2.2,2.2,0,0,1,1.052-1.057c1.6-.8,3.176-1.637,4.777-2.431a.675.675,0,0,0,.429-.775c-.122-1.86-.236-3.722-.295-5.584a2.354,2.354,0,0,1,.339-1.235c.976-1.577,2-3.125,3.025-4.671a.574.574,0,0,0,0-.748c-1.015-1.531-2-3.08-3.016-4.613a2.1,2.1,0,0,1-.368-1.349c.114-1.86.2-3.724.319-5.584a.607.607,0,0,0-.392-.692c-1.645-.82-3.286-1.651-4.9-2.528a2.32,2.32,0,0,1-.893-.908c-.857-1.626-1.669-3.275-2.467-4.933a.668.668,0,0,0-.763-.444c-1.831.122-3.662.241-5.5.3a2.258,2.258,0,0,1-1.216-.348c-1.551-.992-3.075-2.032-4.6-3.073a.552.552,0,0,0-.737,0c-1.507,1.033-3.014,2.064-4.556,3.043a2.446,2.446,0,0,1-1.312.376c-1.816-.054-3.631-.176-5.445-.3a.665.665,0,0,0-.763.438c-.8,1.658-1.606,3.31-2.461,4.937a2.321,2.321,0,0,1-.893.908c-1.6.868-3.227,1.69-4.856,2.5a.649.649,0,0,0-.435.722c.12,1.789.2,3.582.315,5.371a2.5,2.5,0,0,1-.429,1.649c-1.006,1.5-1.966,3.02-2.96,4.523a.577.577,0,0,0,0,.752c.956,1.441,1.866,2.917,2.846,4.343a3.063,3.063,0,0,1,.531,2.1c-.131,1.7-.186,3.4-.3,5.1a.648.648,0,0,0,.437.721c1.629.812,3.259,1.628,4.861,2.494a2.3,2.3,0,0,1,.9.9c.864,1.641,1.682,3.31,2.487,4.982a.6.6,0,0,0,.682.4c1.831-.12,3.664-.241,5.5-.3a2.359,2.359,0,0,1,1.264.358c1.553.988,3.076,2.028,4.6,3.071a.552.552,0,0,0,.739-.006c1.521-1.038,3.045-2.079,4.6-3.071a2.436,2.436,0,0,1,1.218-.35C538.5,586.921,539.391,587.013,540.281,587.061Z" transform="translate(-504.607 -538.517)" fill="#fff"/>
    <path id="Path_14531" data-name="Path 14531" d="M510.082,561.006a16.726,16.726,0,1,1,16.727,16.986A16.9,16.9,0,0,1,510.082,561.006Zm31.222-.013a14.487,14.487,0,1,0-14.474,14.727A14.642,14.642,0,0,0,541.3,560.993Z" transform="translate(-499.997 -533.714)" fill="#fff"/>
    <path id="Path_14532" data-name="Path 14532" d="M520.714,558.235c.252-.243.5-.485.755-.726,2.351-2.255,4.694-4.515,7.059-6.754a2.089,2.089,0,0,1,.941-.5.942.942,0,0,1,1.033.565,1.033,1.033,0,0,1-.064,1.153,3.186,3.186,0,0,1-.422.47q-4.134,3.969-8.273,7.929c-.87.833-1.38.816-2.218-.06q-2.028-2.116-4.056-4.235a2.966,2.966,0,0,1-.425-.537,1.084,1.084,0,0,1,.179-1.319,1.045,1.045,0,0,1,1.3-.187,3.976,3.976,0,0,1,.556.479q1.876,1.746,3.745,3.5Z" transform="translate(-495.943 -528.304)" fill="#fff"/>
  </g>
</svg>
