<svg xmlns="http://www.w3.org/2000/svg" width="18.998" height="18.998" viewBox="0 0 18.998 17.099">
<path id="dvr_FILL0_wght400_GRAD0_opsz48" d="M84.749-829.717a.759.759,0,0,0,.559-.225.757.757,0,0,0,.226-.558.759.759,0,0,0-.225-.558.757.757,0,0,0-.558-.226.759.759,0,0,0-.559.225.757.757,0,0,0-.226.558.76.76,0,0,0,.225.559A.757.757,0,0,0,84.749-829.717Zm0-3.8a.759.759,0,0,0,.559-.225.757.757,0,0,0,.226-.558.76.76,0,0,0-.225-.559.757.757,0,0,0-.558-.226.759.759,0,0,0-.559.225.757.757,0,0,0-.226.558.759.759,0,0,0,.225.558A.757.757,0,0,0,84.749-833.517Zm1.9,3.729H95.2v-1.425H86.65Zm0-3.8H95.2v-1.425H86.65ZM85.937-822.9v-1.9H81.425a1.367,1.367,0,0,1-1-.427,1.367,1.367,0,0,1-.427-1v-12.349a1.367,1.367,0,0,1,.427-1,1.367,1.367,0,0,1,1-.427H97.574a1.367,1.367,0,0,1,1,.427,1.367,1.367,0,0,1,.427,1v12.349a1.367,1.367,0,0,1-.427,1,1.367,1.367,0,0,1-1,.427H93.062v1.9Zm-4.512-3.325H97.574v-12.349H81.425Zm0,0v0Z" transform="translate(-80 840)" fill="#fff"/>
</svg>