<svg xmlns="http://www.w3.org/2000/svg" viewBox="0 0 48 37.895">
  <path id="credit_card_FILL0_wght300_GRAD0_opsz48_1_" data-name="credit_card_FILL0_wght300_GRAD0_opsz48 (1)" d="M53,12.663V43.232A3.666,3.666,0,0,1,49.337,46.9H8.663A3.666,3.666,0,0,1,5,43.232V12.663A3.666,3.666,0,0,1,8.663,9H49.337A3.666,3.666,0,0,1,53,12.663ZM7.842,19.295H50.158V12.663a.866.866,0,0,0-.821-.821H8.663a.866.866,0,0,0-.821.821Zm0,6.632V43.232a.866.866,0,0,0,.821.821H49.337a.866.866,0,0,0,.821-.821V25.926Zm0,18.126v0Z" transform="translate(-5 -9)"/>
</svg>
