<svg xmlns="http://www.w3.org/2000/svg" viewBox="0 0 43.535 48">
  <path id="document_scanner_FILL0_wght300_GRAD0_opsz48" d="M4.5,11.542V2.5h9.042V5.012H7.012v6.53Zm41.023,0V5.012h-6.53V2.5h9.042v9.042ZM4.5,50.5V41.458H7.012v6.53h6.53V50.5Zm34.493,0V47.988h6.53v-6.53h2.512V50.5ZM13.709,40.565a.766.766,0,0,0,.726.726H38.1a.766.766,0,0,0,.726-.726V12.435a.766.766,0,0,0-.726-.726H14.435a.766.766,0,0,0-.726.726Zm.726,3.237A3.24,3.24,0,0,1,11.2,40.565V12.435A3.24,3.24,0,0,1,14.435,9.2H38.1a3.24,3.24,0,0,1,3.237,3.237v28.13A3.24,3.24,0,0,1,38.1,43.8Zm6.084-22.716h11.5V18.519h-11.5Zm0,6.7h11.5V25.216h-11.5Zm0,6.7h11.5V31.914h-11.5Zm-6.809,6.084v0Z" transform="translate(-4.5 -2.5)"/>
</svg>
