<svg xmlns="http://www.w3.org/2000/svg" viewBox="0 0 17.505 23.34">
  <path id="Icon_awesome-file-download" data-name="Icon awesome-file-download" d="M10.211,6.2V0H1.094A1.091,1.091,0,0,0,0,1.094V22.246A1.091,1.091,0,0,0,1.094,23.34H16.411A1.091,1.091,0,0,0,17.5,22.246V7.294h-6.2A1.1,1.1,0,0,1,10.211,6.2ZM13.7,15.835,9.3,20.2a.777.777,0,0,1-1.1,0l-4.4-4.363a.729.729,0,0,1,.513-1.247H7.294V10.941a.729.729,0,0,1,.729-.729H9.482a.729.729,0,0,1,.729.729v3.647h2.971A.73.73,0,0,1,13.7,15.835Zm3.49-11.048L12.723.319A1.093,1.093,0,0,0,11.948,0H11.67V5.835H17.5V5.557A1.091,1.091,0,0,0,17.186,4.786Z" fill="#f2a000"/>
</svg>
