<svg id="Group_8974" data-name="Group 8974" xmlns="http://www.w3.org/2000/svg" viewBox="0 0 17.211 17.306">
  <g id="Group_8977" data-name="Group 8977" transform="translate(0 0)">
    <g id="Group_8976" data-name="Group 8976">
      <g id="Group_8975" data-name="Group 8975">
        <g id="Group_8974-2" data-name="Group 8974">
          <path id="Line_105" data-name="Line 105" d="M13.265-1.551H-2.207A.761.761,0,0,1-3-2.276.761.761,0,0,1-2.207-3H13.265a.761.761,0,0,1,.793.724A.761.761,0,0,1,13.265-1.551Z" transform="translate(3.081 8.87)" fill="#edeff4"/>
          <path id="Line_106" data-name="Line 106" d="M-2.188-1.551a.765.765,0,0,1-.8-.724A.757.757,0,0,1-2.2-3h.008a.761.761,0,0,1,.793.724A.761.761,0,0,1-2.188-1.551Z" transform="translate(14.657 11.967)" fill="#edeff4"/>
          <path id="Line_107" data-name="Line 107" d="M-2.188-1.551a.765.765,0,0,1-.8-.724A.757.757,0,0,1-2.2-3h.008a.761.761,0,0,1,.793.724A.761.761,0,0,1-2.188-1.551Z" transform="translate(10.806 11.967)" fill="#edeff4"/>
          <path id="Line_108" data-name="Line 108" d="M-2.188-1.551a.765.765,0,0,1-.8-.724A.757.757,0,0,1-2.2-3h.008a.761.761,0,0,1,.793.724A.761.761,0,0,1-2.188-1.551Z" transform="translate(6.946 11.967)" fill="#edeff4"/>
          <path id="Line_109" data-name="Line 109" d="M-2.188-1.551a.765.765,0,0,1-.8-.724A.757.757,0,0,1-2.2-3h.008a.761.761,0,0,1,.793.724A.761.761,0,0,1-2.188-1.551Z" transform="translate(14.657 15.048)" fill="#edeff4"/>
          <path id="Line_110" data-name="Line 110" d="M-2.188-1.551a.765.765,0,0,1-.8-.724A.757.757,0,0,1-2.2-3h.008a.761.761,0,0,1,.793.724A.761.761,0,0,1-2.188-1.551Z" transform="translate(10.806 15.048)" fill="#edeff4"/>
          <path id="Line_111" data-name="Line 111" d="M-2.188-1.551a.765.765,0,0,1-.8-.724A.757.757,0,0,1-2.2-3h.008a.761.761,0,0,1,.793.724A.761.761,0,0,1-2.188-1.551Z" transform="translate(6.946 15.048)" fill="#edeff4"/>
          <path id="Line_112" data-name="Line 112" d="M-2.207,1.058A.761.761,0,0,1-3,.334V-2.276A.761.761,0,0,1-2.207-3a.761.761,0,0,1,.793.724V.334A.761.761,0,0,1-2.207,1.058Z" transform="translate(14.323 3)" fill="#edeff4"/>
          <path id="Line_113" data-name="Line 113" d="M-2.207,1.058A.761.761,0,0,1-3,.334V-2.276A.761.761,0,0,1-2.207-3a.761.761,0,0,1,.793.724V.334A.761.761,0,0,1-2.207,1.058Z" transform="translate(7.311 3)" fill="#edeff4"/>
          <path id="Path_942" data-name="Path 942" d="M1.934-1.421h7.35A5.29,5.29,0,0,1,12.933-.209a4.172,4.172,0,0,1,1.278,3.2V10.22c0,2.722-1.891,4.413-4.934,4.413H1.934C-1.109,14.633-3,12.919-3,10.16V2.985C-3,.267-1.109-1.421,1.934-1.421ZM9.276,13.184c1.528,0,3.348-.514,3.348-2.964V2.985A2.8,2.8,0,0,0,11.809.813,3.684,3.684,0,0,0,9.284.028H1.934C.407.028-1.414.541-1.414,2.985V10.16c0,2.5,1.821,3.024,3.348,3.024Z" transform="translate(3 2.673)" fill="#edeff4"/>
        </g>
      </g>
    </g>
  </g>
</svg>
