<svg xmlns="http://www.w3.org/2000/svg" viewBox="0 0 120 120">
  <g id="Group_10752" data-name="Group 10752" transform="translate(-1291 -591.749)">
    <ellipse id="Ellipse_372" data-name="Ellipse 372" cx="60" cy="60" rx="60" ry="60" transform="translate(1291 591.749)" fill="#bac6d8"/>
    <path id="live_help_FILL0_wght400_GRAD0_opsz48" d="M148.667,242.89l-9.556-9.556H124.778a4.525,4.525,0,0,1-3.344-1.473,4.629,4.629,0,0,1-1.433-3.3V180.778A4.9,4.9,0,0,1,124.778,176h47.778a4.629,4.629,0,0,1,3.3,1.433,4.525,4.525,0,0,1,1.473,3.344v47.778a5.054,5.054,0,0,1-4.778,4.778H158.223Zm-23.889-14.333h16.245l7.645,7.645,7.645-7.645h16.245V180.778H124.778Zm0-47.778v0Zm23.652,41.567a2.995,2.995,0,1,0-2.15-.876A2.917,2.917,0,0,0,148.43,222.345Zm1.909-11.785a8.811,8.811,0,0,1,.8-4.021,14.943,14.943,0,0,1,2.765-3.521,19.841,19.841,0,0,0,3.685-4.681,9.259,9.259,0,0,0,1.035-4.26,8.6,8.6,0,0,0-2.707-6.689,10.4,10.4,0,0,0-7.288-2.469,12.258,12.258,0,0,0-7.021,1.951,11.329,11.329,0,0,0-4.245,5.375L141.58,194a8.408,8.408,0,0,1,2.883-3.384,7.372,7.372,0,0,1,4.125-1.155,5.942,5.942,0,0,1,4.021,1.274,4.4,4.4,0,0,1,1.473,3.512,5.9,5.9,0,0,1-.876,3.058,17.776,17.776,0,0,1-2.946,3.464,14.47,14.47,0,0,0-3.7,4.778,14.261,14.261,0,0,0-.757,5.017Z" transform="translate(1202.333 445.305)" fill="#e7ecf7"/>
  </g>
</svg>
