<svg xmlns="http://www.w3.org/2000/svg" viewBox="0 0 18.445 19.121">
  <path id="Path_941" data-name="Path 941" d="M11.525,16.1H9.832A1.946,1.946,0,0,1,7.91,14.188V11.511a.39.39,0,0,0-.4-.38H4.974a.389.389,0,0,0-.389.38V14.18a.847.847,0,0,1-.03.225,1.947,1.947,0,0,1-1.943,1.7H.92A3.888,3.888,0,0,1-3,12.257V4.672A2.936,2.936,0,0,1-1.811,2.333L3.934-2.228a3.675,3.675,0,0,1,4.548,0l5.792,4.569a2.941,2.941,0,0,1,1.172,2.314v7.6A3.888,3.888,0,0,1,11.525,16.1ZM7.513,9.421a2.11,2.11,0,0,1,2.125,2.09v2.677a.214.214,0,0,0,.214.207h1.673a2.168,2.168,0,0,0,2.192-2.138V4.664a1.253,1.253,0,0,0-.507-.979L7.406-.893a1.962,1.962,0,0,0-2.395,0L-.749,3.681a1.254,1.254,0,0,0-.523,1v7.576A2.168,2.168,0,0,0,.92,14.394H2.612a.222.222,0,0,0,.228-.215.85.85,0,0,1,.017-.169v-2.5a2.113,2.113,0,0,1,2.111-2.09Z" transform="translate(3 3.017)" fill="#edeff4"/>
</svg>
