<svg id="Group_10075" data-name="Group 10075" xmlns="http://www.w3.org/2000/svg" viewBox="0 0 120 120">
  <ellipse id="Ellipse_212" data-name="Ellipse 212" cx="60" cy="60" rx="60" ry="60" transform="translate(0)" fill="#bac6d8"/>
  <g id="Group_6588" data-name="Group 6588" transform="translate(31.671 29.849)">
    <path id="Path_2423" data-name="Path 2423" d="M8.823,57.459H46.636A8.848,8.848,0,0,0,55.459,48.6v-19a2.521,2.521,0,0,0-5.042,0v19a3.8,3.8,0,0,1-3.781,3.814H8.823A3.8,3.8,0,0,1,5.042,48.6V10.856A3.8,3.8,0,0,1,8.823,7.042H27.729a2.521,2.521,0,0,0,0-5.042H8.823A8.848,8.848,0,0,0,0,10.856V48.6a8.848,8.848,0,0,0,8.823,8.856Z" transform="translate(0 2.844)" fill="#e7ecf7"/>
    <path id="Path_2424" data-name="Path 2424" d="M10.69,26.46,8.7,35.571a2.521,2.521,0,0,0,.683,2.322,2.617,2.617,0,0,0,2.319.678l9.09-1.994a2.521,2.521,0,0,0,1.245-.683L45.014,12.918a7.563,7.563,0,0,0,0-10.7,7.739,7.739,0,0,0-10.693,0l-22.94,23a2.521,2.521,0,0,0-.691,1.24ZM37.885,5.789a2.576,2.576,0,0,1,3.564,0,2.544,2.544,0,0,1,0,3.562l-1.782,1.782L36.1,7.569ZM15.449,28.26,32.525,11.141l3.529,3.547L18.971,31.812l-4.525.993Z" transform="translate(13.145 -0.079)" fill="#e7ecf7"/>
  </g>
</svg>
