<svg xmlns="http://www.w3.org/2000/svg" viewBox="0 0 21.621 24.403">
  <g id="notes" transform="translate(-3 -1.5)">
    <path id="Path_17504" data-name="Path 17504" d="M9,8.506A1.074,1.074,0,0,1,10.131,7.5H21.44a1.074,1.074,0,0,1,1.131,1.006A1.074,1.074,0,0,1,21.44,9.513H10.131A1.074,1.074,0,0,1,9,8.506Z" transform="translate(-1.975 -1.522)" />
    <path id="Path_17505" data-name="Path 17505" d="M9,14.506A1.074,1.074,0,0,1,10.131,13.5H21.44a1.013,1.013,0,1,1,0,2.013H10.131A1.074,1.074,0,0,1,9,14.506Z" transform="translate(-1.975 -3.044)" />
    <path id="Path_17506" data-name="Path 17506" d="M10.131,19.5a1.013,1.013,0,1,0,0,2.013H21.44a1.013,1.013,0,1,0,0-2.013Z" transform="translate(-1.975 -4.566)" />
    <path id="Path_17507" data-name="Path 17507" d="M9,26.506A1.006,1.006,0,0,1,10.006,25.5h4.025a1.006,1.006,0,1,1,0,2.013H10.006A1.006,1.006,0,0,1,9,26.506Z" transform="translate(-1.548 -6.087)" />
    <path id="Path_17508" data-name="Path 17508" d="M3,4.828A3.286,3.286,0,0,1,6.243,1.5H21.378a3.286,3.286,0,0,1,3.243,3.328V22.576A3.286,3.286,0,0,1,21.378,25.9H6.243A3.286,3.286,0,0,1,3,22.576ZM6.243,3.718H21.378a1.1,1.1,0,0,1,1.081,1.109V22.576a1.1,1.1,0,0,1-1.081,1.109H6.243a1.1,1.1,0,0,1-1.081-1.109V4.828A1.1,1.1,0,0,1,6.243,3.718Z" transform="translate(0 0)"  fill-rule="evenodd"/>
  </g>
</svg>
