<?xml version="1.0" encoding="utf-8"?>
<!-- Generator: Adobe Illustrator 25.0.1, SVG Export Plug-In . SVG Version: 6.00 Build 0)  -->
<svg version="1.1" id="Layer_1" xmlns="http://www.w3.org/2000/svg" xmlns:xlink="http://www.w3.org/1999/xlink" x="0px" y="0px"
	 viewBox="0 0 17.95 22.69" style="enable-background:new 0 0 17.95 22.69;" xml:space="preserve">
<style type="text/css">
	.st0{fill:currentColor;}
</style>
<path id="XMLID_10081_" class="st0" d="M17.58,18.05c-0.07-0.04-0.57-0.39-1.07-1.46c-0.92-1.95-1.12-4.7-1.12-6.67
	c0,0,0-0.02,0-0.03c-0.01-2.6-1.56-4.83-3.79-5.84V2.53C11.6,1.13,10.47,0,9.08,0H8.87C7.48,0,6.35,1.13,6.35,2.53v1.54
	C4.12,5.07,2.56,7.32,2.56,9.93c0,1.96-0.19,4.72-1.12,6.67c-0.5,1.06-1,1.42-1.07,1.46c-0.28,0.13-0.42,0.43-0.35,0.73
	c0.07,0.31,0.35,0.52,0.67,0.52h4.87c0.03,1.87,1.55,3.38,3.42,3.38s3.39-1.51,3.42-3.38h4.87c0.31,0,0.6-0.21,0.67-0.52
	C18,18.48,17.86,18.18,17.58,18.05z M7.68,2.53c0-0.66,0.54-1.2,1.19-1.2h0.21c0.66,0,1.19,0.54,1.19,1.2v1.1
	C9.85,3.54,9.42,3.5,8.98,3.5c-0.44,0-0.88,0.05-1.3,0.13L7.68,2.53L7.68,2.53z M8.98,21.36c-1.14,0-2.07-0.91-2.09-2.05h4.18
	C11.04,20.44,10.11,21.36,8.98,21.36z M11.65,17.98H2.2c0.11-0.18,0.23-0.38,0.35-0.61c0.89-1.76,1.34-4.26,1.34-7.44
	c0-2.81,2.28-5.1,5.09-5.1s5.09,2.29,5.09,5.1c0,0,0,0.02,0,0.02c0,3.17,0.45,5.66,1.34,7.41c0.12,0.23,0.23,0.43,0.35,0.61
	L11.65,17.98z"/>
</svg>
