<svg xmlns="http://www.w3.org/2000/svg" viewBox="0 0 48 34.7">
  <path id="payments_FILL0_wght300_GRAD0_opsz48" d="M30.951,29.23a5.854,5.854,0,0,1-5.911-5.911,5.854,5.854,0,0,1,5.911-5.911,5.854,5.854,0,0,1,5.911,5.911,5.854,5.854,0,0,1-5.911,5.911Zm-17.32,8.217a3.191,3.191,0,0,1-2.365-1.034,3.333,3.333,0,0,1-1-2.394v-21.4A3.433,3.433,0,0,1,13.631,9.25h34.64a3.3,3.3,0,0,1,2.424,1,3.236,3.236,0,0,1,1,2.365v21.4a3.334,3.334,0,0,1-1,2.394,3.256,3.256,0,0,1-2.424,1.034Zm4.434-2.719H43.9a5.147,5.147,0,0,1,5.143-5.143V17.053A5.147,5.147,0,0,1,43.9,11.91H18.065a5.147,5.147,0,0,1-5.143,5.143V29.585a5.147,5.147,0,0,1,5.143,5.143Zm26.6,9.222H7.129a3.3,3.3,0,0,1-2.424-1,3.236,3.236,0,0,1-1-2.365v-24.3H6.36v24.3a.681.681,0,0,0,.236.473.735.735,0,0,0,.532.236H44.666ZM13.631,34.728h-.709V11.91h.709a.706.706,0,0,0-.709.709v21.4a.706.706,0,0,0,.709.709Z" transform="translate(-3.7 -9.25)"/>
</svg>
