<svg xmlns="http://www.w3.org/2000/svg" viewBox="0 0 25.558 22.098">
  <path id="Path_14545" data-name="Path 14545" d="M270.137,330.64q-3.207.55-4.507,4.241a10.681,10.681,0,0,0-.65,3.605,2.337,2.337,0,0,0,.023.36c.016.1.038.319.07.658h5.065v9.247h-9.9v-8.526q0-6.276,2.742-9.671a10.382,10.382,0,0,1,7.156-3.9Zm15.66,0a5.2,5.2,0,0,0-3.88,2.629,10.013,10.013,0,0,0-1.325,5.175c0,.17.007.339.024.508a2.557,2.557,0,0,0,.116.552H285.8v9.247h-9.945v-8.526a17.5,17.5,0,0,1,2.324-9.014q2.325-3.965,7.621-4.559Z" transform="translate(-260.239 -326.653)" fill="#f2a000"/>
</svg>
