<?xml version="1.0" encoding="utf-8"?>
<!-- Generator: Adobe Illustrator 25.0.1, SVG Export Plug-In . SVG Version: 6.00 Build 0)  -->
<svg version="1.1" id="Layer_1" xmlns="http://www.w3.org/2000/svg" xmlns:xlink="http://www.w3.org/1999/xlink" x="0px" y="0px"
	 viewBox="0 0 30.04 30.04" style="enable-background:new 0 0 30.04 30.04;" xml:space="preserve">
<style type="text/css">
	.st0{fill:#FFFFFF;}
</style>
<g id="XMLID_5147_">
	<g id="XMLID_5149_">
		<path id="XMLID_5150_" class="st0" d="M29.78,0.26c-0.25-0.25-0.62-0.33-0.95-0.19L0.55,11.37C0.23,11.5,0.01,11.81,0,12.16
			c-0.01,0.35,0.18,0.67,0.5,0.82l11.15,5.41l5.41,11.15c0.15,0.3,0.46,0.5,0.79,0.5c0.01,0,0.02,0,0.03,0
			c0.35-0.01,0.66-0.23,0.79-0.55L29.98,1.21C30.11,0.88,30.03,0.51,29.78,0.26z M3.06,12.27L25.5,3.29L12.13,16.67L3.06,12.27z
			 M17.77,26.98l-4.4-9.07L26.75,4.53L17.77,26.98z"/>
	</g>
</g>
</svg>
