<svg xmlns="http://www.w3.org/2000/svg" viewBox="0 0 24 24.65">
  <g id="Group_9958" data-name="Group 9958" transform="translate(-1487.062 -463.459)">
    <path id="Path_2367" data-name="Path 2367" d="M24.421,15.291V13.94l1.7-1.483a1.766,1.766,0,0,0,.335-2.251L24.368,6.674a1.78,1.78,0,0,0-2.092-.794L20.13,6.6a10.021,10.021,0,0,0-1.157-.662l-.45-2.225a1.766,1.766,0,0,0-1.766-1.421H12.626A1.766,1.766,0,0,0,10.86,3.716l-.45,2.225A10.135,10.135,0,0,0,9.244,6.6l-2.1-.76a1.766,1.766,0,0,0-.564-.053,1.766,1.766,0,0,0-1.527.883L2.968,10.205a1.766,1.766,0,0,0,.362,2.216L5,13.949V15.3L3.33,16.782a1.766,1.766,0,0,0-.362,2.251l2.084,3.531a1.78,1.78,0,0,0,2.092.794l2.146-.724a10.02,10.02,0,0,0,1.157.662l.45,2.225a1.766,1.766,0,0,0,1.766,1.421H16.83A1.766,1.766,0,0,0,18.6,25.523l.45-2.225a10.136,10.136,0,0,0,1.165-.662l2.137.724a1.78,1.78,0,0,0,2.092-.794l2.013-3.531a1.766,1.766,0,0,0-.362-2.216Zm-1.581,6.392-3.028-1.024a7.822,7.822,0,0,1-2.393,1.386l-.626,3.17H12.626L12,22.08a8.263,8.263,0,0,1-2.384-1.386l-3.036.989L4.5,18.151l2.4-2.119a7.858,7.858,0,0,1,0-2.763L4.5,11.088,6.579,7.557,9.607,8.581A7.822,7.822,0,0,1,12,7.195l.626-3.17h4.167l.627,3.134A8.264,8.264,0,0,1,19.8,8.546l3.036-.989,2.084,3.531-2.4,2.119a7.858,7.858,0,0,1,0,2.763l2.4,2.181Z" transform="translate(1484.348 461.164)" fill="#1982ef"/>
    <path id="Path_2368" data-name="Path 2368" d="M17.25,23.25a5.94,5.94,0,1,1,4.26-1.74A6,6,0,0,1,17.25,23.25Zm0-10a3.91,3.91,0,0,0-4,4,3.91,3.91,0,0,0,4,4,3.91,3.91,0,0,0,4-4,3.91,3.91,0,0,0-4-4Z" transform="translate(1481.812 458.534)" fill="#1982ef"/>
  </g>
</svg>
