<svg xmlns="http://www.w3.org/2000/svg" viewBox="0 0 84.899 84.783">
  <path id="aedc605d3de181555d0a15f1d7fef50e" d="M44.481,52.867a4.239,4.239,0,1,0,4.239,4.239A4.239,4.239,0,0,0,44.481,52.867ZM44.481,2A42.39,42.39,0,0,0,2.091,44.39a41.923,41.923,0,0,0,9.58,26.833L3.194,79.7A4.133,4.133,0,0,0,6.33,86.779H44.481A42.39,42.39,0,1,0,44.481,2Zm0,76.3H16.546l3.942-3.942a4.147,4.147,0,0,0,0-5.977A33.912,33.912,0,1,1,44.481,78.3Zm0-50.867a4.239,4.239,0,0,0-4.239,4.239V44.39a4.239,4.239,0,0,0,8.478,0V31.673A4.239,4.239,0,0,0,44.481,27.434Z" transform="translate(-1.972 -2)" fill="#fff"/>
</svg>
