<svg xmlns="http://www.w3.org/2000/svg" viewBox="0 0 16.562 17.486">
  <path id="Path_1007" data-name="Path 1007" d="M13.752,5.641A.92.92,0,0,0,15,5.3a.922.922,0,1,1,.8,1.38.92.92,0,1,0,0,1.841A2.761,2.761,0,1,0,13.412,4.38a.92.92,0,0,0,.341,1.261ZM17.709,12.2a.92.92,0,0,0-1.031.791,6.442,6.442,0,0,1-6.4,5.651H5.138l.6-.6a.92.92,0,0,0,0-1.3A6.442,6.442,0,0,1,10.283,5.761a.92.92,0,1,0,0-1.841A8.282,8.282,0,0,0,3.841,17.366L2.267,18.912a.926.926,0,0,0,.653,1.574h7.362A8.283,8.283,0,0,0,18.5,13.242a.92.92,0,0,0-.792-1.039Zm-1.555-2.7a.92.92,0,0,0-.534-.064l-.166.055-.166.083-.138.12a.92.92,0,0,0-.193.294.773.773,0,0,0-.074.368.92.92,0,0,0,1.841,0,.773.773,0,0,0-.074-.35.985.985,0,0,0-.5-.5Z" transform="translate(-2.002 -3)" fill="#edeff4"/>
</svg>
