<svg xmlns="http://www.w3.org/2000/svg" width="34.577" height="37.281" viewBox="0 0 34.577 37.281">
  <g id="Group_9934" data-name="Group 9934" transform="translate(0.375 0.476)" opacity="0.6">
    <g id="Group_9933" data-name="Group 9933">
      <g id="Group_9930" data-name="Group 9930" transform="translate(0 11.71)">
        <g id="Group_9929" data-name="Group 9929">
          <path id="Path_17460" data-name="Path 17460" d="M848.418,589.3h-6.505a1.3,1.3,0,1,0,0,2.6h6.505a1.3,1.3,0,0,1,1.3,1.3v16.913a1.3,1.3,0,0,1-1.3,1.3H822.4a1.3,1.3,0,0,1-1.3-1.3V593.2a1.3,1.3,0,0,1,1.3-1.3H828.9a1.3,1.3,0,0,0,0-2.6H822.4a3.9,3.9,0,0,0-3.9,3.9v16.914a3.9,3.9,0,0,0,3.9,3.9h26.021a3.9,3.9,0,0,0,3.9-3.9V593.2A3.9,3.9,0,0,0,848.418,589.3Z" transform="translate(-818.494 -589.297)" fill="#acb2bf" stroke="#f2f4fb" stroke-miterlimit="10" stroke-width="0.75"/>
        </g>
      </g>
      <g id="Group_9932" data-name="Group 9932" transform="translate(9.123)">
        <g id="Group_9931" data-name="Group 9931">
          <path id="Path_17461" data-name="Path 17461" d="M843.477,583.647l-6.505-6.505a1.3,1.3,0,0,0-1.839,0l-6.505,6.505a1.3,1.3,0,0,0,1.84,1.84l4.285-4.285v21.58a1.3,1.3,0,1,0,2.6,0V581.2l4.284,4.284a1.3,1.3,0,0,0,1.839-1.84Z" transform="translate(-828.262 -576.76)" fill="#acb2bf" stroke="#f2f4fb" stroke-miterlimit="10" stroke-width="0.75"/>
        </g>
      </g>
    </g>
  </g>
</svg>
