<svg xmlns="http://www.w3.org/2000/svg" width="40" height="40" viewBox="0 0 40 40">
  <g id="Group_11655" data-name="Group 11655" transform="translate(10148 21834)">
    <circle id="Ellipse_379" data-name="Ellipse 379" cx="20" cy="20" r="20" transform="translate(-10148 -21834)" fill="#124f81"/>
    <path id="dark_mode_FILL0_wght400_GRAD0_opsz24" d="M133.255-813.49a12.783,12.783,0,0,1-9.389-3.866A12.783,12.783,0,0,1,120-826.745a12.783,12.783,0,0,1,3.866-9.389A12.783,12.783,0,0,1,133.255-840q.515,0,1.013.037t.976.11a7.8,7.8,0,0,0-2.412,2.78,7.819,7.819,0,0,0-.9,3.7,7.67,7.67,0,0,0,2.32,5.633,7.67,7.67,0,0,0,5.633,2.319,7.786,7.786,0,0,0,3.719-.9,7.841,7.841,0,0,0,2.761-2.412q.074.479.11.976t.037,1.013a12.783,12.783,0,0,1-3.866,9.389A12.783,12.783,0,0,1,133.255-813.49Zm0-2.946a9.974,9.974,0,0,0,5.817-1.786,10.328,10.328,0,0,0,3.756-4.657q-.736.184-1.473.294a9.919,9.919,0,0,1-1.473.11,10.505,10.505,0,0,1-7.714-3.185,10.505,10.505,0,0,1-3.185-7.713,9.915,9.915,0,0,1,.11-1.473q.11-.736.295-1.473a10.327,10.327,0,0,0-4.658,3.755,9.974,9.974,0,0,0-1.786,5.818,9.934,9.934,0,0,0,3.019,7.29A9.934,9.934,0,0,0,133.255-816.436ZM132.887-826.377Z" transform="translate(-10261.5 -20987.5)" fill="#fff"/>
  </g>
</svg>
