<svg xmlns="http://www.w3.org/2000/svg" width="310.359" height="152.562" viewBox="0 0 310.359 152.562">
  <g id="Group_11194" data-name="Group 11194" transform="translate(-68.018 -55)">
    <g id="Group_11124" data-name="Group 11124" transform="translate(68.018 55)">
      <path id="Path_17761" data-name="Path 17761" d="M161.6,156.824a10,10,0,1,1,10-10A10.011,10.011,0,0,1,161.6,156.824Zm0-17a7,7,0,1,0,7,7A7.008,7.008,0,0,0,161.6,139.824Z" transform="translate(-87.34 -43.136)" fill="#ef9926"/>
      <path id="Path_17762" data-name="Path 17762" d="M378.413,101.755a3.5,3.5,0,1,1,3.5-3.5A3.5,3.5,0,0,1,378.413,101.755Zm0-6a2.5,2.5,0,1,0,2.5,2.5A2.5,2.5,0,0,0,378.413,95.755Z" transform="translate(-87.34 -43.136)" fill="#ffeb97"/>
      <path id="Path_17763" data-name="Path 17763" d="M195.656,193.735a4.1,4.1,0,1,1,4.1-4.1A4.1,4.1,0,0,1,195.656,193.735Zm0-7a2.9,2.9,0,1,0,2.9,2.9A2.9,2.9,0,0,0,195.656,186.735Z" transform="translate(-87.34 -43.136)" fill="#ea3f3f"/>
      <circle id="Ellipse_375" data-name="Ellipse 375" cx="4.5" cy="4.5" r="4.5" transform="translate(248.192 91.382)" fill="#ffae1f"/>
      <circle id="Ellipse_376" data-name="Ellipse 376" cx="3.5" cy="3.5" r="3.5" transform="translate(62.91 42.077)" fill="#ffae1f"/>
      <circle id="Ellipse_377" data-name="Ellipse 377" cx="4" cy="4" r="4" transform="translate(214.255 19.9)" fill="#ffd522"/>
      <circle id="Ellipse_378" data-name="Ellipse 378" cx="4" cy="4" r="4" transform="translate(8.217 120.603)" fill="#ffd522"/>
      <circle id="Ellipse_379" data-name="Ellipse 379" cx="3" cy="3" r="3" transform="translate(290.705 129.277)" fill="#ffd522"/>
      <circle id="Ellipse_380" data-name="Ellipse 380" cx="4.5" cy="4.5" r="4.5" transform="translate(87.153 77.804)" fill="#e54242"/>
      <circle id="Ellipse_381" data-name="Ellipse 381" cx="1.5" cy="1.5" r="1.5" transform="translate(190.108)" fill="#e54242"/>
      <circle id="Ellipse_382" data-name="Ellipse 382" cx="1.5" cy="1.5" r="1.5" transform="translate(31.493 113.48)" fill="#e54242"/>
      <circle id="Ellipse_383" data-name="Ellipse 383" cx="1.5" cy="1.5" r="1.5" transform="translate(103.316 104.188)" fill="#e54242"/>
      <circle id="Ellipse_384" data-name="Ellipse 384" cx="1.5" cy="1.5" r="1.5" transform="translate(221.274 87.655)" fill="#ffae1f"/>
      <circle id="Ellipse_385" data-name="Ellipse 385" cx="1.5" cy="1.5" r="1.5" transform="translate(106.241 8.942)" fill="#ffc91f"/>
      <circle id="Ellipse_386" data-name="Ellipse 386" cx="2.5" cy="2.5" r="2.5" transform="translate(160.604 18.343)" fill="#ef4b4b"/>
      <circle id="Ellipse_387" data-name="Ellipse 387" cx="2.5" cy="2.5" r="2.5" transform="translate(301.894 105.688)" fill="#ef4b4b"/>
      <circle id="Ellipse_388" data-name="Ellipse 388" cx="2.5" cy="2.5" r="2.5" transform="translate(237.862 74.522)" fill="#e54242"/>
      <path id="Path_17764" data-name="Path 17764" d="M356.054,177.519l-10.215-10.686L335.433,172.5,334,169.861l12.422-6.761,9.758,10.207,16.214-15.063,2.041,2.2Z" transform="translate(-87.34 -43.136)" fill="#ffae1f"/>
      <path id="Path_17765" data-name="Path 17765" d="M341.966,99.845l-1.321-14.807,14.734-.02L350.85,69.049l16.931-.976L363.171,56.29l3.725-1.457,6.619,16.916-17.456,1.006,4.611,16.256-15.652.021.933,10.458Z" transform="translate(-87.34 -43.136)" fill="#ef4b4b"/>
      <path id="Path_17766" data-name="Path 17766" d="M179.349,95.171l-2.854-.924,5.015-15.5L167.8,72.706l5.811-14.518-16.361-4.034.718-2.913,19.71,4.86-6.016,15.028,13.54,5.964Z" transform="translate(-87.34 -43.136)" fill="#ffae1f"/>
      <path id="Path_17767" data-name="Path 17767" d="M109.221,138.131l-8.286-17.437-10.3,15.032-3.3-2.261L101.564,112.7l8.726,18.363,9.184-9.983,8.363,13.9-3.427,2.063-5.609-9.319Z" transform="translate(-87.34 -43.136)" fill="#ffe669"/>
      <path id="Path_17768" data-name="Path 17768" d="M131.838,96.648c-8.78-5.817-5.945-17.8-5.82-18.307l2.914.716c-.026.1-2.445,10.447,4.563,15.091Z" transform="translate(-87.34 -43.136)" fill="#ffae1f"/>
      <path id="Path_17769" data-name="Path 17769" d="M382.341,130.3l-2.59-1.513c5.311-9.1,17.435-6.942,17.949-6.845l-.55,2.949C397.042,124.87,386.581,123.039,382.341,130.3Z" transform="translate(-87.34 -43.136)" fill="#ffae1f"/>
      <path id="Path_17770" data-name="Path 17770" d="M170.746,175.8l-2.812-1.045a15.259,15.259,0,0,1,16.2-9.076l-.321,2.983C173.915,167.6,170.776,175.722,170.746,175.8Z" transform="translate(-87.34 -43.136)" fill="#ffae1f"/>
      <path id="Path_17771" data-name="Path 17771" d="M309.072,195.7l-2.781-1.123c1.263-3.129,1.379-5.842.344-8.064a9.641,9.641,0,0,0-5.222-4.57l.93-2.852a12.691,12.691,0,0,1,7.011,6.155C310.755,188.249,310.66,191.766,309.072,195.7Z" transform="translate(-87.34 -43.136)" fill="#cc3232"/>
      <path id="Path_17772" data-name="Path 17772" d="M205.011,66.31l-1.444-2.628c2.946-1.619,4.749-3.639,5.359-6a9.764,9.764,0,0,0-1.152-6.873l2.527-1.617a12.686,12.686,0,0,1,1.539,9.2C211.024,61.6,208.727,64.27,205.011,66.31Z" transform="translate(-87.34 -43.136)" fill="#cc3232"/>
      <path id="Path_17773" data-name="Path 17773" d="M330.579,160.79c-12.794-2.417-15.851-14.133-15.975-14.631l2.913-.724-1.457.362,1.456-.366c.106.422,2.753,10.359,13.62,12.41Z" transform="translate(-87.34 -43.136)" fill="#ef4b4b"/>
      <path id="Path_17774" data-name="Path 17774" d="M310.572,83.849c-1.682,1.138,17.382-1.468,25.838-24.159.7-1.874-7.993-8.036-10.105-5.514S330.287,70.5,310.572,83.849Z" transform="translate(-87.34 -43.136)" fill="#ffae1f"/>
    </g>
    <g id="Group_11125" data-name="Group 11125" transform="translate(173.18 75.843)">
      <path id="Path_17775" data-name="Path 17775" d="M199.773,109.2s.072,59.157,1.418,61.345,49.864,24.426,51.618,23.9l-.3-63.29Z" transform="translate(-194.936 -63.979)" fill="#1982ef"/>
      <path id="Path_17776" data-name="Path 17776" d="M218.164,179.442s4.275,6.428,13.712,6.428V126.177l-13.712-6.253Z" transform="translate(-194.936 -63.979)" fill="#ffae1f"/>
      <path id="Path_17777" data-name="Path 17777" d="M231.876,136.145v-9.968l-13.711-6.253v12.312C222.69,133.719,227.25,135.056,231.876,136.145Z" transform="translate(-194.936 -63.979)" fill="#ffae1f" opacity="0.2" style="mix-blend-mode: multiply;isolation: isolate"/>
      <path id="Path_17778" data-name="Path 17778" d="M252.016,131.4l.793,63.048S299.9,171.612,300.353,169.2s1.69-62.359,1.69-62.359Z" transform="translate(-194.936 -63.979)" fill="#0871c9"/>
      <path id="Path_17779" data-name="Path 17779" d="M274.182,183.859s8.278-.964,12.413-6.391l1.427-59.17-14.05,4.277Z" transform="translate(-194.936 -63.979)" fill="#ef9926"/>
      <path id="Path_17780" data-name="Path 17780" d="M287.611,135.35l.411-17.052-14.05,4.277.06,17.675C278.6,138.727,283.139,137.118,287.611,135.35Z" transform="translate(-194.936 -63.979)" fill="#ef9926" opacity="0.17" style="mix-blend-mode: multiply;isolation: isolate"/>
      <path id="Path_17781" data-name="Path 17781" d="M195.081,100.88s-.4,13.407.125,15.21,58.63,25.757,59.9,26.248c0,0-.369-16.261-.391-16.9C254.687,124.664,195.081,100.88,195.081,100.88Z" transform="translate(-194.936 -63.979)" fill="#1982ef"/>
      <path id="Path_17782" data-name="Path 17782" d="M254.714,125.44l.391,16.9s49.7-20.194,50.427-22.624c.362-1.213,1.483-16.456-.379-16.408Z" transform="translate(-194.936 -63.979)" fill="#0871c9"/>
      <path id="Path_17783" data-name="Path 17783" d="M254.714,125.44l50.439-22.134S252.2,82.895,249.675,82.953c-2.49.058-54.594,17.927-54.594,17.927Z" transform="translate(-194.936 -63.979)" fill="#1982ef"/>
      <path id="Path_17784" data-name="Path 17784" d="M219.862,92.469,278.2,115.132l1.1,17.121s7.708.816,11.617-5.052l-.988-17.217-58.82-21.271S222.891,88.772,219.862,92.469Z" transform="translate(-194.936 -63.979)" fill="#ffae1f"/>
      <path id="Path_17785" data-name="Path 17785" d="M268.233,89.329s8.268-.106,12.351,4.616l-50.9,21.187-.229,16.521s-11.294-1.236-14.609-6.213l.434-16.24Z" transform="translate(-194.936 -63.979)" fill="#ffc91f"/>
      <path id="Path_17786" data-name="Path 17786" d="M288.769,70c-21.132-22.537-40.33,26.156-35.7,30.88C259.37,107.311,311.125,93.842,288.769,70ZM254.482,99.667c-.831-1.122,16.423-43.02,29.787-25.452C299.862,94.714,255.782,101.423,254.482,99.667Z" transform="translate(-194.936 -63.979)" fill="#ffe424"/>
      <path id="Path_17787" data-name="Path 17787" d="M291.041,72.74c-.049.451-.1.9-.161,1.354a34.517,34.517,0,0,1-3.446,10.158,10.065,10.065,0,0,1-1.9,4.123,2.625,2.625,0,0,1-.869,1.036C277.8,96.874,260.941,100,255.9,99.93a30.016,30.016,0,0,1-3.236.283,1.954,1.954,0,0,0,.4.667C259.124,107.06,307.144,94.86,291.041,72.74Z" transform="translate(-194.936 -63.979)" fill="#ffbb24" opacity="0.18" style="mix-blend-mode: multiply;isolation: isolate"/>
      <path id="Path_17788" data-name="Path 17788" d="M253.216,99.244c3.219-1.415,3.379-29.252-11.513-22.309C225.948,84.28,248.832,101.172,253.216,99.244ZM243.09,79.906c10.074-6.028,10.3,18.07,9.668,18.46C251.769,98.975,231.336,86.939,243.09,79.906Z" transform="translate(-194.936 -63.979)" fill="#ffe424"/>
      <path id="Path_17789" data-name="Path 17789" d="M240.039,77.838c-.065.232-.13.465-.188.7a18.348,18.348,0,0,0-.31,5.7,5.358,5.358,0,0,0,.125,2.412,1.38,1.38,0,0,0,.224.683C241.8,92.373,249.5,97.252,252,98.214a15.782,15.782,0,0,0,1.542.78,1.027,1.027,0,0,1-.329.25C249,101.1,227.712,85.571,240.039,77.838Z" transform="translate(-194.936 -63.979)" fill="#ffbb24" opacity="0.18" style="mix-blend-mode: multiply;isolation: isolate"/>
      <path id="Path_17790" data-name="Path 17790" d="M253.391,100.782c4.628-4.723-14.57-53.416-35.7-30.879C195.334,93.745,247.089,107.214,253.391,100.782Zm-31.2-26.665c13.364-17.568,30.618,24.331,29.787,25.453C250.677,101.325,206.6,94.616,222.189,74.117Z" transform="translate(-194.936 -63.979)" fill="#ffe424"/>
      <path id="Path_17791" data-name="Path 17791" d="M215.417,72.643c.049.451.1.9.161,1.354a34.517,34.517,0,0,0,3.446,10.158,10.078,10.078,0,0,0,1.9,4.123,2.633,2.633,0,0,0,.869,1.036c6.861,7.463,23.719,10.59,28.755,10.519a30.013,30.013,0,0,0,3.237.283,1.96,1.96,0,0,1-.4.666C247.334,106.963,199.315,94.763,215.417,72.643Z" transform="translate(-194.936 -63.979)" fill="#ffbb24" opacity="0.18" style="mix-blend-mode: multiply;isolation: isolate"/>
      <path id="Path_17792" data-name="Path 17792" d="M266.467,86.947c-9.044-7.455-13.905,11.8-11.935,13.351C257.215,102.412,276.035,94.833,266.467,86.947ZM255.005,99.773c-.367-.382,4.093-16.984,9.974-11.022C271.84,95.708,255.58,100.37,255.005,99.773Z" transform="translate(-194.936 -63.979)" fill="#ffe424"/>
      <path id="Path_17793" data-name="Path 17793" d="M267.455,87.868c0,.172.007.344.005.517a13.065,13.065,0,0,1-.8,3.989,3.831,3.831,0,0,1-.516,1.644,1,1,0,0,1-.277.432c-2.22,3.141-8.411,5.135-10.309,5.353a11.344,11.344,0,0,1-1.2.263.728.728,0,0,0,.182.232C257.111,102.33,274.587,95.41,267.455,87.868Z" transform="translate(-194.936 -63.979)" fill="#ffbb24" opacity="0.18" style="mix-blend-mode: multiply;isolation: isolate"/>
      <path id="Path_17794" data-name="Path 17794" d="M223.986,110.628a68.671,68.671,0,0,1,11.675-4.388,1.5,1.5,0,0,0-.8-2.893,73.028,73.028,0,0,0-12.391,4.691c-1.737.842-.217,3.43,1.514,2.59Z" transform="translate(-194.936 -63.979)" fill="#ffe424" opacity="0.48"/>
      <path id="Path_17795" data-name="Path 17795" d="M218.3,114.244q-.235,3.193-.472,6.387c-.142,1.925,2.858,1.916,3,0q.235-3.193.472-6.387c.142-1.926-2.858-1.917-3,0Z" transform="translate(-194.936 -63.979)" fill="#ffe424" opacity="0.48"/>
      <path id="Path_17796" data-name="Path 17796" d="M268.755,107.428l13.493,4.521c1.834.615,2.621-2.282.8-2.893l-13.493-4.521c-1.835-.614-2.622,2.282-.8,2.893Z" transform="translate(-194.936 -63.979)" fill="#ffc91f" opacity="0.45"/>
      <path id="Path_17797" data-name="Path 17797" d="M284.995,114.375q.072,3.19-.113,6.376c-.111,1.928,2.889,1.922,3,0q.186-3.187.113-6.376c-.044-1.927-3.044-1.934-3,0Z" transform="translate(-194.936 -63.979)" fill="#ffc91f" opacity="0.45"/>
      <path id="Path_17798" data-name="Path 17798" d="M220.894,163.27l.069,7.562a1.5,1.5,0,0,0,3,0l-.069-7.562a1.5,1.5,0,0,0-3,0Z" transform="translate(-194.936 -63.979)" fill="#ffc91f" opacity="0.45"/>
      <path id="Path_17799" data-name="Path 17799" d="M220.907,145.742q.057,6.188.113,12.374a1.5,1.5,0,0,0,3,0q-.057-6.187-.113-12.374a1.5,1.5,0,0,0-3,0Z" transform="translate(-194.936 -63.979)" fill="#ffc91f" opacity="0.45"/>
      <path id="Path_17800" data-name="Path 17800" d="M282.4,140.321q-.216,8.918-.163,17.836a1.5,1.5,0,0,0,3,0q-.054-8.919.163-17.836c.047-1.932-2.953-1.931-3,0Z" transform="translate(-194.936 -63.979)" fill="#ffae1f" opacity="0.51"/>
      <path id="Path_17801" data-name="Path 17801" d="M282.317,163.821a37.539,37.539,0,0,0,.179,7.837c.241,1.889,3.245,1.913,3,0a37.541,37.541,0,0,1-.179-7.837c.157-1.924-2.844-1.914-3,0Z" transform="translate(-194.936 -63.979)" fill="#ffae1f" opacity="0.51"/>
      <path id="Path_17802" data-name="Path 17802" d="M205.778,102.587q5.869-1.773,11.623-3.885c1.8-.66,1.02-3.561-.8-2.893q-5.754,2.114-11.622,3.885c-1.844.557-1.058,3.453.8,2.893Z" transform="translate(-194.936 -63.979)" fill="#5da5f0"/>
      <path id="Path_17803" data-name="Path 17803" d="M202.4,125.872q-.339,10.69-.049,21.379c.052,1.926,3.052,1.934,3,0q-.291-10.692.049-21.379c.061-1.932-2.939-1.929-3,0Z" transform="translate(-194.936 -63.979)" fill="#5da5f0"/>
      <path id="Path_17804" data-name="Path 17804" d="M202.553,152.248q-.112,3.625-.041,7.252c.038,1.928,3.039,1.934,3,0q-.072-3.627.041-7.252c.06-1.932-2.94-1.929-3,0Z" transform="translate(-194.936 -63.979)" fill="#5da5f0"/>
    </g>
  </g>
</svg>
