<svg xmlns="http://www.w3.org/2000/svg" width="25" height="25" viewBox="0 0 25 25">
  <g id="Group_11148" data-name="Group 11148" transform="translate(0.5 0.5)">
    <ellipse id="Ellipse_236" data-name="Ellipse 236" cx="12" cy="12" rx="12" ry="12" fill="none" stroke="#1982ef" stroke-width="1"/>
    <path id="Path_17612" data-name="Path 17612" d="M27.646,21.328a1.148,1.148,0,0,1-.295.767,4.413,4.413,0,0,1-.344.336l-.074.063a19.107,19.107,0,0,1-4.9,2.857,4.754,4.754,0,0,1-1.142.294h-.049a1.593,1.593,0,0,1-1.363-.713,5.322,5.322,0,0,1-.295-.956A16.707,16.707,0,0,1,19,21.318a14.426,14.426,0,0,1,.209-2.742,6.2,6.2,0,0,1,.221-.767,1.469,1.469,0,0,1,.688-.651A1.965,1.965,0,0,1,20.891,17a4.737,4.737,0,0,1,1.019.242,19.217,19.217,0,0,1,5.011,2.9c.172.147.356.327.405.368A1.207,1.207,0,0,1,27.646,21.328Z" transform="translate(-10.555 -9.067)" fill="#1982ef"/>
  </g>
</svg>
